<svg width="25" height="25" viewBox="0 0 25 25" fill="none" xmlns="http://www.w3.org/2000/svg">
<circle cx="12.5" cy="12.5" r="12.5" fill="white"/>
<path d="M10.9783 8.89858C10.8571 8.89591 10.738 8.93105 10.6377 8.99917C10.5374 9.06728 10.4608 9.165 10.4186 9.27866C10.3764 9.39232 10.3706 9.51629 10.4021 9.63337C10.4336 9.75046 10.5008 9.85478 10.5943 9.93191L14.1638 12.9898L10.5943 16.0467C10.5296 16.0943 10.4754 16.1547 10.4351 16.2241C10.3949 16.2936 10.3694 16.3707 10.3602 16.4505C10.3511 16.5303 10.3585 16.6111 10.3821 16.6878C10.4056 16.7646 10.4448 16.8357 10.4971 16.8967C10.5494 16.9576 10.6137 17.0071 10.686 17.042C10.7583 17.077 10.8371 17.0966 10.9173 17.0997C10.9976 17.1028 11.0776 17.0893 11.1524 17.0601C11.2272 17.0308 11.2951 16.9864 11.352 16.9297L15.4387 13.433C15.5029 13.3783 15.5545 13.3103 15.5898 13.2337C15.6251 13.1571 15.6434 13.0737 15.6434 12.9893C15.6434 12.9049 15.6251 12.8216 15.5898 12.7449C15.5545 12.6683 15.5029 12.6003 15.4387 12.5455L11.352 9.04552C11.2488 8.95383 11.1163 8.90169 10.9783 8.89844V8.89858Z" fill="#DD5956"/>
</svg>
