<svg width="29" height="29" viewBox="0 0 29 29" fill="none" xmlns="http://www.w3.org/2000/svg">
<rect width="29" height="29" fill="white"/>
<g clip-path="url(#clip0_154_6381)">
<path d="M22.3533 9.92743L14.8464 6.12378L14.8433 6.12222C14.509 5.95581 14.1119 5.95953 13.7807 6.13218L10.561 7.84095C10.5349 7.85204 10.5097 7.86549 10.4857 7.88096L6.62741 9.92866C6.24039 10.1313 6 10.5283 6 10.9653V18.0336C6 18.4706 6.24039 18.8676 6.62741 19.0703L13.7775 22.8651L13.7808 22.8668C13.9496 22.9549 14.1357 22.999 14.3219 22.999C14.5007 22.999 14.6795 22.9583 14.8433 22.8768L22.3533 19.0715C22.7522 18.872 23 18.4712 23 18.025V10.974C23 10.5278 22.7522 10.1269 22.3533 9.92743ZM14.2422 7.01449C14.291 6.98946 14.3493 6.98896 14.3985 7.0131L21.4252 10.5735L18.6905 11.935L11.8208 8.29965L14.2422 7.01449ZM13.8168 21.7587L7.09271 18.1899L7.08949 18.1882C7.03169 18.1581 6.99573 18.0989 6.99573 18.0336V11.4146L13.8168 14.9715V21.7587ZM14.3199 14.1109L7.53637 10.5736L10.7579 8.86384L17.5936 12.4811L14.3199 14.1109ZM22.0042 18.0249C22.0042 18.0916 21.9672 18.1514 21.9076 18.1811L14.8126 21.776V14.9779L18.0793 13.3515V15.0567C18.0793 15.3316 18.3022 15.5546 18.5772 15.5546C18.8521 15.5546 19.0751 15.3316 19.0751 15.0567V12.8558L22.0042 11.3975V18.0249Z" fill="#343434"/>
</g>
<defs>
<clipPath id="clip0_154_6381">
<rect width="17" height="17" fill="white" transform="translate(6 6)"/>
</clipPath>
</defs>
</svg>
