<svg width="28" height="23" viewBox="0 0 28 23" fill="none" xmlns="http://www.w3.org/2000/svg">
<path d="M24.4958 21.0779H26.8805C27.3196 21.0779 27.6755 21.4338 27.6755 21.8728C27.6755 22.3119 27.3196 22.6678 26.8805 22.6678H1.44336C1.00433 22.6678 0.648438 22.3118 0.648438 21.8728C0.648438 21.4338 1.00433 21.0779 1.44336 21.0779H3.82807V7.5644C3.82807 7.12537 4.18396 6.76948 4.62299 6.76948H11.7772C12.2162 6.76948 12.5721 7.12537 12.5721 7.5644V21.0779H15.7517V1.20508C15.7517 0.766047 16.1076 0.410156 16.5467 0.410156H23.7009C24.1399 0.410156 24.4958 0.766047 24.4958 1.20508V21.0779H24.4958ZM5.41792 8.35932V21.0779H10.9823V8.35932H5.41792ZM17.3416 2V21.0779H22.906V2H17.3416Z" fill="#303030"/>
</svg>
