<svg width="20" height="18" viewBox="0 0 20 18" fill="none" xmlns="http://www.w3.org/2000/svg">
<path d="M17.6471 16.0598H19.4118C19.7366 16.0598 20 16.3231 20 16.648C20 16.9729 19.7366 17.2362 19.4118 17.2362H0.588242C0.263359 17.2362 0 16.9729 0 16.648C0 16.3231 0.263359 16.0598 0.588242 16.0598H2.35293V6.05977C2.35293 5.73488 2.61629 5.47152 2.94117 5.47152H8.23527C8.56016 5.47152 8.82352 5.73488 8.82352 6.05977V16.0598H11.1764V1.35387C11.1764 1.02898 11.4398 0.765625 11.7647 0.765625H17.0588C17.3837 0.765625 17.647 1.02898 17.647 1.35387V16.0598H17.6471ZM3.52941 6.64801V16.0598H7.64707V6.64801H3.52941ZM12.3529 1.94211V16.0598H16.4706V1.94211H12.3529Z" fill="#303030"/>
</svg>
