<svg width="28" height="28" viewBox="0 0 28 28" fill="none" xmlns="http://www.w3.org/2000/svg">
<rect width="28" height="28" fill="white"/>
<g clip-path="url(#clip0_154_5022)">
<path d="M20.9767 14.9335L19.914 8.90646C19.7696 8.08759 18.9858 7.53881 18.167 7.68322L9.05236 9.29042C8.23346 9.4348 7.68471 10.2185 7.8291 11.0373L7.90718 11.4803C7.37387 11.7129 7 12.245 7 12.8631V18.8325C7 19.664 7.67649 20.3405 8.508 20.3405H17.556C18.3875 20.3405 19.064 19.664 19.064 18.8325V16.8019L19.7534 16.6804C20.1501 16.6104 20.4958 16.3902 20.7269 16.0602C20.9579 15.7303 21.0466 15.3301 20.9767 14.9335ZM20.0531 15.5884C19.9481 15.7384 19.7909 15.8385 19.6106 15.8703L19.064 15.9667V15.4979V13.6321V12.863C19.064 12.0315 18.3875 11.355 17.556 11.355H8.72038L8.63917 10.8945C8.60736 10.7142 8.64772 10.5323 8.75273 10.3823C8.85774 10.2323 9.0149 10.1322 9.19521 10.1004L18.3099 8.49324C18.35 8.48616 18.3898 8.48276 18.4292 8.48276C18.7554 8.48276 19.0454 8.71713 19.104 9.04925L20.1667 15.0762C20.1984 15.2566 20.1581 15.4385 20.0531 15.5884ZM17.556 19.5179H8.508C8.13004 19.5179 7.82254 19.2104 7.82254 18.8325V15.9092H18.2414V18.8325C18.2414 19.2104 17.9339 19.5179 17.556 19.5179ZM8.508 12.1776H17.556C17.9339 12.1776 18.2414 12.4851 18.2414 12.8631V13.2209H7.82254V12.8631C7.82254 12.4851 8.13004 12.1776 8.508 12.1776ZM18.2414 14.0434V15.0867H7.82254V14.0434H18.2414Z" fill="#DD515B"/>
<path d="M10.9577 17.8652H9.09194C8.8648 17.8652 8.68066 18.0494 8.68066 18.2765C8.68066 18.5036 8.8648 18.6878 9.09194 18.6878H10.9577C11.1849 18.6878 11.369 18.5036 11.369 18.2765C11.369 18.0494 11.1849 17.8652 10.9577 17.8652Z" fill="#DD515B"/>
</g>
<defs>
<clipPath id="clip0_154_5022">
<rect width="14" height="14" fill="white" transform="translate(7 7)"/>
</clipPath>
</defs>
</svg>
