<svg width="29" height="29" viewBox="0 0 29 29" fill="none" xmlns="http://www.w3.org/2000/svg">
<path d="M8.67435 12.0225C10.5235 12.0225 12.0225 10.5235 12.0225 8.67435C12.0225 6.8252 10.5235 5.32617 8.67435 5.32617C6.8252 5.32617 5.32617 6.8252 5.32617 8.67435C5.32617 10.5235 6.8252 12.0225 8.67435 12.0225Z" fill="white"/>
<path d="M8.67435 23.6749C10.5235 23.6749 12.0225 22.1758 12.0225 20.3267C12.0225 18.4775 10.5235 16.9785 8.67435 16.9785C6.8252 16.9785 5.32617 18.4775 5.32617 20.3267C5.32617 22.1758 6.8252 23.6749 8.67435 23.6749Z" fill="white"/>
<path d="M20.3267 12.0225C22.1758 12.0225 23.6749 10.5235 23.6749 8.67435C23.6749 6.8252 22.1758 5.32617 20.3267 5.32617C18.4775 5.32617 16.9785 6.8252 16.9785 8.67435C16.9785 10.5235 18.4775 12.0225 20.3267 12.0225Z" fill="white"/>
<path d="M20.3267 23.6749C22.1758 23.6749 23.6749 22.1758 23.6749 20.3267C23.6749 18.4775 22.1758 16.9785 20.3267 16.9785C18.4775 16.9785 16.9785 18.4775 16.9785 20.3267C16.9785 22.1758 18.4775 23.6749 20.3267 23.6749Z" fill="white"/>
</svg>
