<svg width="13" height="13" viewBox="0 0 13 13" fill="none" xmlns="http://www.w3.org/2000/svg">
<g clip-path="url(#clip0_154_6223)">
<path d="M7.691 6.50973L12.7529 1.44764C13.0824 1.11837 13.0824 0.585985 12.7529 0.256717C12.4237 -0.0725515 11.8913 -0.0725515 11.562 0.256717L6.49993 5.31881L1.43799 0.256717C1.10856 -0.0725515 0.576335 -0.0725515 0.247067 0.256717C-0.0823556 0.585985 -0.0823556 1.11837 0.247067 1.44764L5.30901 6.50973L0.247067 11.5718C-0.0823556 11.9011 -0.0823556 12.4335 0.247067 12.7627C0.411161 12.927 0.626921 13.0095 0.842526 13.0095C1.05813 13.0095 1.27374 12.927 1.43799 12.7627L6.49993 7.70065L11.562 12.7627C11.7263 12.927 11.9419 13.0095 12.1575 13.0095C12.3731 13.0095 12.5887 12.927 12.7529 12.7627C13.0824 12.4335 13.0824 11.9011 12.7529 11.5718L7.691 6.50973Z" fill="#446F8C"/>
</g>
<defs>
<clipPath id="clip0_154_6223">
<rect width="13" height="13" fill="white"/>
</clipPath>
</defs>
</svg>
