<svg width="14" height="14" viewBox="0 0 14 14" fill="none" xmlns="http://www.w3.org/2000/svg">
<g clip-path="url(#clip0_154_7895)">
<path d="M0.723809 -3.62396e-05C0.539394 -3.62396e-05 0.35498 0.0701075 0.214867 0.211275C-0.0664139 0.492556 -0.0664139 0.948582 0.214867 1.22986L12.774 13.789C13.0553 14.0703 13.5113 14.0703 13.7926 13.789C14.0739 13.5078 14.0739 13.0517 13.7926 12.7703L1.23363 0.211275C1.09246 0.0709867 0.908047 -3.62396e-05 0.723809 -3.62396e-05Z" fill="#1D1D1D"/>
<path d="M13.2839 -3.62396e-05C13.0994 -3.62396e-05 12.9152 0.0701075 12.7749 0.211275L0.214867 12.7703C-0.0664139 13.0517 -0.0664139 13.5078 0.214867 13.789C0.496147 14.0703 0.952173 14.0703 1.23363 13.789L13.7926 1.22986C14.0739 0.948582 14.0739 0.492556 13.7926 0.211275C13.6515 0.0709867 13.4672 -3.62396e-05 13.2839 -3.62396e-05Z" fill="#1D1D1D"/>
</g>
<defs>
<clipPath id="clip0_154_7895">
<rect width="14" height="14" fill="white" transform="matrix(1 0 0 -1 0 14)"/>
</clipPath>
</defs>
</svg>
