<svg width="35" height="35" viewBox="0 0 35 35" fill="none" xmlns="http://www.w3.org/2000/svg">
<rect width="35" height="35" fill="#F7F7F7"/>
<path d="M24.6471 24.0598H26.4118C26.7366 24.0598 27 24.3231 27 24.648C27 24.9729 26.7366 25.2362 26.4118 25.2362H7.58824C7.26336 25.2362 7 24.9729 7 24.648C7 24.3231 7.26336 24.0598 7.58824 24.0598H9.35293V14.0598C9.35293 13.7349 9.61629 13.4715 9.94117 13.4715H15.2353C15.5602 13.4715 15.8235 13.7349 15.8235 14.0598V24.0598H18.1764V9.35387C18.1764 9.02898 18.4398 8.76562 18.7647 8.76562H24.0588C24.3837 8.76562 24.647 9.02898 24.647 9.35387V24.0598H24.6471ZM10.5294 14.648V24.0598H14.6471V14.648H10.5294ZM19.3529 9.94211V24.0598H23.4706V9.94211H19.3529Z" fill="#303030"/>
</svg>
