<svg width="12" height="12" viewBox="0 0 12 12" fill="none" xmlns="http://www.w3.org/2000/svg">
<g clip-path="url(#clip0_154_9560)">
<path d="M11.0671 0.925049C9.83306 -0.30835 7.8257 -0.30835 6.59163 0.925049L3.98242 3.53425L6.94478 6.49661C7.55448 5.98888 8.32748 5.67098 9.181 5.67098C9.67056 5.67098 10.1364 5.77267 10.5603 5.95427L11.0671 5.40058C12.3009 4.16683 12.3009 2.15915 11.0671 0.925049Z" fill="#D1D1D1"/>
<path d="M6.45134 6.99771L3.48486 4.03125L0.931154 6.58746C-0.302572 7.82119 -0.302572 9.82889 0.931154 11.063C2.16521 12.2963 4.196 12.3198 5.4301 11.0864L5.94779 10.5662C5.76619 10.1423 5.6645 9.67645 5.6645 9.18689C5.66452 8.35528 5.96687 7.60038 6.45134 6.99771Z" fill="#D1D1D1"/>
<path d="M6.36719 9.18762C6.36719 10.6207 7.4428 11.7902 8.82848 11.9651V6.41016C7.4428 6.58498 6.36719 7.75448 6.36719 9.18762Z" fill="#D1D1D1"/>
<path d="M9.5332 6.41016V11.9651C10.9189 11.7902 11.9945 10.6207 11.9945 9.18759C11.9945 7.75451 10.9189 6.58498 9.5332 6.41016Z" fill="#D1D1D1"/>
</g>
<defs>
<clipPath id="clip0_154_9560">
<rect width="12" height="12" fill="white"/>
</clipPath>
</defs>
</svg>
