<svg width="10" height="10" viewBox="0 0 10 10" fill="none" xmlns="http://www.w3.org/2000/svg">
<path d="M5.91615 5.00779L9.80995 1.11387C10.0634 0.860583 10.0634 0.451058 9.80995 0.197775C9.55667 -0.0555083 9.14715 -0.0555083 8.89386 0.197775L4.99994 4.0917L1.10614 0.197775C0.85274 -0.0555083 0.443335 -0.0555083 0.190051 0.197775C-0.0633505 0.451058 -0.0633505 0.860583 0.190051 1.11387L4.08385 5.00779L0.190051 8.90171C-0.0633505 9.15499 -0.0633505 9.56451 0.190051 9.8178C0.316278 9.94414 0.482247 10.0076 0.648097 10.0076C0.813947 10.0076 0.979797 9.94414 1.10614 9.8178L4.99994 5.92388L8.89386 9.8178C9.02021 9.94414 9.18606 10.0076 9.35191 10.0076C9.51776 10.0076 9.68361 9.94414 9.80995 9.8178C10.0634 9.56451 10.0634 9.15499 9.80995 8.90171L5.91615 5.00779Z" fill="#4C7543"/>
</svg>
