<svg width="40" height="40" viewBox="0 0 40 40" fill="none" xmlns="http://www.w3.org/2000/svg">
<rect width="40" height="40" rx="3" fill="#3D6AD6"/>
<path d="M16.7047 21.2404C16.6293 21.2404 15.0484 21.2409 14.3193 21.2401C13.9439 21.2399 13.81 21.105 13.81 20.7273C13.8095 19.7569 13.8093 18.7866 13.81 17.8163C13.8103 17.4433 13.9519 17.301 14.3224 17.3008C15.0515 17.3003 16.6238 17.3005 16.7047 17.3005C16.7047 17.2341 16.7044 15.8332 16.7047 15.1881C16.7051 14.2343 16.8753 13.3213 17.3599 12.4854C17.8559 11.6298 18.5779 11.0437 19.5031 10.7049C20.0956 10.4877 20.7107 10.401 21.3395 10.4005C22.1263 10.4001 22.913 10.4008 23.6999 10.4022C24.0381 10.4027 24.1881 10.5522 24.1888 10.8928C24.1903 11.8055 24.1903 12.7182 24.1888 13.6307C24.1883 13.9749 24.0446 14.1131 23.6987 14.1169C23.0539 14.1239 22.4085 14.1196 21.7643 14.1455C21.1137 14.1455 20.7715 14.4633 20.7715 15.1367C20.7559 15.849 20.765 16.5621 20.765 17.3003C20.8259 17.3003 22.6775 17.3001 23.543 17.3003C23.9361 17.3003 24.0705 17.4354 24.0705 17.8307C24.0705 18.7957 24.0703 19.761 24.0695 20.7261C24.0693 21.1156 23.9431 21.2399 23.5475 21.2401C22.6821 21.2406 20.8377 21.2404 20.7571 21.2404V29.0512C20.7571 29.4676 20.626 29.6003 20.2151 29.6003C19.2134 29.6003 18.2114 29.6005 17.2096 29.6003C16.8465 29.6003 16.7049 29.4592 16.7049 29.0961C16.7047 26.5523 16.7047 21.3297 16.7047 21.2404Z" fill="white"/>
</svg>
