<svg width="29" height="29" viewBox="0 0 29 29" fill="none" xmlns="http://www.w3.org/2000/svg">
<rect width="29" height="29" fill="white"/>
<path d="M19.3756 21.5312H11.5803C11.2459 21.5312 10.9251 21.3984 10.6887 21.1619C10.4522 20.9255 10.3193 20.6047 10.3193 20.2703V8.72969C10.3193 8.39527 10.4522 8.07454 10.6887 7.83807C10.9251 7.6016 11.2459 7.46875 11.5803 7.46875H15.1568C15.477 7.4694 15.7857 7.58787 16.024 7.80156L20.1959 11.5516C20.3331 11.6743 20.4428 11.8245 20.5179 11.9925C20.5931 12.1605 20.6319 12.3425 20.6318 12.5266V20.2703C20.6318 20.6039 20.4996 20.9239 20.2642 21.1603C20.0287 21.3966 19.7092 21.53 19.3756 21.5312ZM11.5803 8.40625C11.4945 8.40625 11.4122 8.44033 11.3516 8.50098C11.2909 8.56164 11.2568 8.64391 11.2568 8.72969V20.2703C11.2568 20.3561 11.2909 20.4384 11.3516 20.499C11.4122 20.5597 11.4945 20.5938 11.5803 20.5938H19.3756C19.4614 20.5938 19.5436 20.5597 19.6043 20.499C19.6649 20.4384 19.699 20.3561 19.699 20.2703V12.5031C19.6989 12.4518 19.688 12.4011 19.667 12.3542C19.646 12.3074 19.6154 12.2655 19.5771 12.2312L15.4053 8.48125C15.3344 8.42671 15.246 8.40003 15.1568 8.40625H11.5803Z" fill="#343434"/>
<path d="M20.1631 12.5961H16.0334C15.7611 12.5961 15.5 12.4879 15.3075 12.2954C15.115 12.1029 15.0068 11.8418 15.0068 11.5695V8.19922H15.9443V11.5695C15.9443 11.5932 15.9537 11.6158 15.9704 11.6325C15.9871 11.6492 16.0098 11.6586 16.0334 11.6586H20.1631V12.5961Z" fill="#343434"/>
<path d="M17.5098 18.25H13.7598C13.5009 18.25 13.291 18.4599 13.291 18.7188C13.291 18.9776 13.5009 19.1875 13.7598 19.1875H17.5098C17.7686 19.1875 17.9785 18.9776 17.9785 18.7188C17.9785 18.4599 17.7686 18.25 17.5098 18.25Z" fill="#343434"/>
<path d="M14.6973 16.2305H13.7598C13.5009 16.2305 13.291 16.4403 13.291 16.6992C13.291 16.9581 13.5009 17.168 13.7598 17.168H14.6973C14.9561 17.168 15.166 16.9581 15.166 16.6992C15.166 16.4403 14.9561 16.2305 14.6973 16.2305Z" fill="#343434"/>
<path d="M9.53633 19.4971C9.22629 19.4934 8.93014 19.368 8.71178 19.1479C8.49341 18.9278 8.37035 18.6306 8.36914 18.3206V10.6799C8.36911 10.5061 8.40773 10.3345 8.4822 10.1775C8.55668 10.0205 8.66516 9.88196 8.79976 9.77203C8.93437 9.6621 9.09175 9.58349 9.26049 9.54188C9.42923 9.50028 9.60511 9.49673 9.77539 9.53149L10.7832 9.70024L10.6285 10.6377L9.61133 10.4549C9.57456 10.445 9.53599 10.4436 9.4986 10.4509C9.46121 10.4582 9.426 10.474 9.3957 10.4971C9.36808 10.5189 9.34573 10.5467 9.33031 10.5784C9.31489 10.61 9.3068 10.6447 9.30664 10.6799V18.3206C9.30733 18.3555 9.31569 18.3899 9.33112 18.4213C9.34655 18.4527 9.36868 18.4803 9.39594 18.5022C9.42321 18.5241 9.45495 18.5398 9.48893 18.5481C9.5229 18.5564 9.55828 18.5571 9.59258 18.5502L10.652 18.4096L10.7738 19.3471L9.74727 19.4831C9.67766 19.4953 9.60694 19.5 9.53633 19.4971Z" fill="#343434"/>
</svg>
