<svg width="44" height="44" viewBox="0 0 44 44" fill="none" xmlns="http://www.w3.org/2000/svg">
<rect width="44" height="44" fill="#C12B46"/>
<g clip-path="url(#clip0_154_1826)">
<path d="M31.3607 20.5485V17.384H29.251V20.5485H26.0864V22.6582H29.251V25.8228H31.3607V22.6582H34.5252V20.5485H31.3607ZM23.2383 24.135L22.0779 23.2911C21.656 22.9747 21.2341 22.5527 21.2341 21.8143C21.2341 21.0759 21.7615 20.443 22.2889 20.1266C23.6602 19.0717 25.0316 17.9114 25.0316 15.5907C25.0316 13.3755 23.6602 12.1097 22.9219 11.4768H24.7151L25.9809 10H19.4408C14.7995 10 12.4788 12.9536 12.4788 16.1181C12.4788 18.5443 14.3776 21.1814 17.7531 21.1814H18.597C18.4915 21.4979 18.175 22.0253 18.175 22.5527C18.175 23.6076 18.597 24.0295 19.1244 24.6624C17.6476 24.7679 14.905 25.0844 12.9008 26.3502C11.002 27.5105 10.4746 29.0928 10.4746 30.2532C10.4746 32.6793 12.6898 35 17.4366 35C23.1328 35 25.8755 31.8354 25.8755 28.7764C25.8754 26.5612 24.7151 25.4008 23.2383 24.135ZM15.2214 14.5359C15.2214 12.2152 16.5927 11.1603 18.0695 11.1603C20.8121 11.1603 22.2889 14.8523 22.2889 16.962C22.2889 19.7046 20.0738 20.2321 19.2299 20.2321C16.5927 20.2321 15.2214 16.962 15.2214 14.5359ZM19.0189 33.5232C15.5379 33.5232 13.3227 31.9409 13.3227 29.6202C13.3227 27.2995 15.4324 26.5611 16.0653 26.2447C17.4366 25.8227 19.2298 25.7173 19.5463 25.7173C19.8627 25.7173 20.0737 25.7173 20.2847 25.7173C22.8163 27.5105 23.8712 28.2489 23.8712 29.9367C23.8712 31.9409 21.867 33.5232 19.0189 33.5232Z" fill="white"/>
</g>
<defs>
<clipPath id="clip0_154_1826">
<rect width="25" height="25" fill="white" transform="translate(10 10)"/>
</clipPath>
</defs>
</svg>
