<svg width="26" height="23" viewBox="0 0 26 23" fill="none" xmlns="http://www.w3.org/2000/svg">
<path d="M13.3002 22.6855C12.9483 22.6855 12.6089 22.558 12.3445 22.3264C11.3457 21.453 10.3828 20.6323 9.5332 19.9084L9.52887 19.9046C7.03806 17.782 4.88717 15.9489 3.39061 14.1432C1.71769 12.1245 0.938477 10.2105 0.938477 8.11962C0.938477 6.08812 1.63507 4.21393 2.89981 2.84205C4.17963 1.45395 5.93574 0.689453 7.84519 0.689453C9.27234 0.689453 10.5793 1.14065 11.7297 2.0304C12.3103 2.47951 12.8366 3.02917 13.3002 3.67031C13.7641 3.02917 14.2902 2.47951 14.8709 2.0304C16.0214 1.14065 17.3283 0.689453 18.7555 0.689453C20.6648 0.689453 22.4211 1.45395 23.7009 2.84205C24.9656 4.21393 25.662 6.08812 25.662 8.11962C25.662 10.2105 24.883 12.1245 23.2101 14.143C21.7135 15.9489 19.5628 17.7818 17.0724 19.9042C16.2213 20.6293 15.2569 21.4513 14.2558 22.3267C13.9916 22.558 13.652 22.6855 13.3002 22.6855ZM7.84519 2.13772C6.34505 2.13772 4.96695 2.73642 3.96441 3.82366C2.94696 4.92731 2.38656 6.45292 2.38656 8.11962C2.38656 9.87818 3.04014 11.4509 4.50558 13.2191C5.92197 14.9283 8.02873 16.7236 10.468 18.8025L10.4726 18.8062C11.3253 19.533 12.292 20.3569 13.2982 21.2367C14.3103 20.3552 15.2786 19.53 16.133 18.8021C18.5721 16.7232 20.6787 14.9283 22.0951 13.2191C23.5604 11.4509 24.2139 9.87818 24.2139 8.11962C24.2139 6.45292 23.6535 4.92731 22.6361 3.82366C21.6337 2.73642 20.2554 2.13772 18.7555 2.13772C17.6566 2.13772 16.6476 2.48706 15.7567 3.17592C14.9628 3.79009 14.4097 4.56647 14.0855 5.10971C13.9188 5.38907 13.6252 5.55582 13.3002 5.55582C12.9752 5.55582 12.6817 5.38907 12.515 5.10971C12.1909 4.56647 11.6379 3.79009 10.8438 3.17592C9.9529 2.48706 8.94394 2.13772 7.84519 2.13772Z" fill="#303030"/>
</svg>
