<svg width="35" height="35" viewBox="0 0 35 35" fill="none" xmlns="http://www.w3.org/2000/svg">
<rect width="35" height="35" fill="#F7F7F7"/>
<g clip-path="url(#clip0_154_5121)">
<path d="M17.1018 26.0271C16.8413 26.0271 16.5902 25.9327 16.3945 25.7613C15.6555 25.115 14.9429 24.5077 14.3142 23.972L14.311 23.9692C12.4678 22.3985 10.8761 21.042 9.76868 19.7058C8.53072 18.212 7.9541 16.7956 7.9541 15.2483C7.9541 13.745 8.46958 12.3581 9.40549 11.3429C10.3526 10.3157 11.6521 9.75 13.0651 9.75C14.1212 9.75 15.0883 10.0839 15.9396 10.7423C16.3693 11.0746 16.7587 11.4814 17.1018 11.9558C17.445 11.4814 17.8343 11.0746 18.2641 10.7423C19.1154 10.0839 20.0826 9.75 21.1387 9.75C22.5515 9.75 23.8512 10.3157 24.7983 11.3429C25.7342 12.3581 26.2495 13.745 26.2495 15.2483C26.2495 16.7956 25.673 18.212 24.4351 19.7056C23.3276 21.042 21.7361 22.3983 19.8932 23.9689C19.2634 24.5055 18.5497 25.1138 17.8089 25.7616C17.6134 25.9327 17.3621 26.0271 17.1018 26.0271ZM13.0651 10.8217C11.955 10.8217 10.9352 11.2648 10.1933 12.0693C9.44038 12.886 9.02568 14.015 9.02568 15.2483C9.02568 16.5497 9.50934 17.7135 10.5938 19.022C11.6419 20.2867 13.2009 21.6153 15.006 23.1536L15.0093 23.1564C15.6404 23.6942 16.3557 24.3039 17.1003 24.9549C17.8493 24.3027 18.5658 23.692 19.1981 23.1533C21.003 21.615 22.5619 20.2867 23.61 19.022C24.6943 17.7135 25.1779 16.5497 25.1779 15.2483C25.1779 14.015 24.7632 12.886 24.0103 12.0693C23.2686 11.2648 22.2487 10.8217 21.1387 10.8217C20.3255 10.8217 19.5789 11.0802 18.9196 11.59C18.3321 12.0445 17.9228 12.619 17.6829 13.021C17.5595 13.2277 17.3423 13.3511 17.1018 13.3511C16.8613 13.3511 16.6441 13.2277 16.5207 13.021C16.2809 12.619 15.8717 12.0445 15.284 11.59C14.6248 11.0802 13.8781 10.8217 13.0651 10.8217Z" fill="#303030"/>
</g>
<defs>
<clipPath id="clip0_154_5121">
<rect width="18.2955" height="18.2955" fill="white" transform="translate(7.9541 8.75)"/>
</clipPath>
</defs>
</svg>
