<svg width="20" height="18" viewBox="0 0 20 18" fill="none" xmlns="http://www.w3.org/2000/svg">
<path d="M10.1018 17.0271C9.84135 17.0271 9.59024 16.9327 9.39454 16.7613C8.65545 16.115 7.94288 15.5077 7.3142 14.972L7.31099 14.9692C5.4678 13.3985 3.87613 12.042 2.76868 10.7058C1.53072 9.21195 0.954102 7.7956 0.954102 6.24832C0.954102 4.74501 1.46958 3.35811 2.40549 2.34292C3.35256 1.31573 4.65207 0.75 6.06507 0.75C7.12116 0.75 8.08833 1.08388 8.93964 1.7423C9.36928 2.07464 9.75872 2.48139 10.1018 2.95583C10.445 2.48139 10.8343 2.07464 11.2641 1.7423C12.1154 1.08388 13.0826 0.75 14.1387 0.75C15.5515 0.75 16.8512 1.31573 17.7983 2.34292C18.7342 3.35811 19.2495 4.74501 19.2495 6.24832C19.2495 7.7956 18.673 9.21195 17.4351 10.7056C16.3276 12.042 14.7361 13.3983 12.8932 14.9689C12.2634 15.5055 11.5497 16.1138 10.8089 16.7616C10.6134 16.9327 10.3621 17.0271 10.1018 17.0271ZM6.06507 1.82172C4.95497 1.82172 3.93518 2.26476 3.19329 3.06931C2.44038 3.88602 2.02568 5.01497 2.02568 6.24832C2.02568 7.54966 2.50934 8.7135 3.59376 10.022C4.64188 11.2867 6.20089 12.6153 8.00597 14.1536L8.00932 14.1564C8.64038 14.6942 9.35574 15.3039 10.1003 15.9549C10.8493 15.3027 11.5658 14.692 12.1981 14.1533C14.003 12.615 15.5619 11.2867 16.61 10.022C17.6943 8.7135 18.1779 7.54966 18.1779 6.24832C18.1779 5.01497 17.7632 3.88602 17.0103 3.06931C16.2686 2.26476 15.2487 1.82172 14.1387 1.82172C13.3255 1.82172 12.5789 2.08023 11.9196 2.58999C11.3321 3.04447 10.9228 3.61899 10.6829 4.02099C10.5595 4.22772 10.3423 4.35111 10.1018 4.35111C9.86131 4.35111 9.64412 4.22772 9.52073 4.02099C9.28092 3.61899 8.87167 3.04447 8.28402 2.58999C7.62477 2.08023 6.87814 1.82172 6.06507 1.82172Z" fill="#303030"/>
</svg>
