<svg width="28" height="28" viewBox="0 0 28 28" fill="none" xmlns="http://www.w3.org/2000/svg">
<rect width="28" height="28" fill="white"/>
<path d="M18.1534 6H8.17391C7.70866 6 7.33016 6.3785 7.33016 6.84375V8.02566H6.82813C6.56925 8.02566 6.35938 8.23553 6.35938 8.49441C6.35938 8.75328 6.56925 8.96316 6.82813 8.96316H7.33016V10.7784H6.82813C6.56925 10.7784 6.35938 10.9883 6.35938 11.2472C6.35938 11.5061 6.56925 11.7159 6.82813 11.7159H7.33016V13.5312H6.82813C6.56925 13.5312 6.35938 13.7411 6.35938 14C6.35938 14.2589 6.56925 14.4688 6.82813 14.4688H7.33016V16.2841H6.82813C6.56925 16.2841 6.35938 16.4939 6.35938 16.7528C6.35938 17.0117 6.56925 17.2216 6.82813 17.2216H7.33016V19.0368H6.82813C6.56925 19.0368 6.35938 19.2467 6.35938 19.5056C6.35938 19.7645 6.56925 19.9743 6.82813 19.9743H7.33016V21.1562C7.33016 21.6215 7.70866 22 8.17391 22H18.1534C18.9744 22 19.6424 21.332 19.6424 20.5109V7.48906C19.6424 6.66797 18.9745 6 18.1534 6V6ZM18.7049 20.5109C18.7049 20.8151 18.4575 21.0625 18.1534 21.0625H8.26766V19.9743H8.76969C9.02856 19.9743 9.23844 19.7645 9.23844 19.5056C9.23844 19.2467 9.02856 19.0368 8.76969 19.0368H8.26766V17.2216H8.76969C9.02856 17.2216 9.23844 17.0117 9.23844 16.7528C9.23844 16.4939 9.02856 16.2841 8.76969 16.2841H8.26766V14.4688H8.76969C9.02856 14.4688 9.23844 14.2589 9.23844 14C9.23844 13.7411 9.02856 13.5312 8.76969 13.5312H8.26766V11.7159H8.76969C9.02856 11.7159 9.23844 11.5061 9.23844 11.2472C9.23844 10.9883 9.02856 10.7784 8.76969 10.7784H8.26766V8.96316H8.76969C9.02856 8.96316 9.23844 8.75328 9.23844 8.49441C9.23844 8.23553 9.02856 8.02566 8.76969 8.02566H8.26766V6.9375H18.1534C18.4575 6.9375 18.7049 7.18491 18.7049 7.48906V20.5109Z" fill="#343434"/>
<path d="M16.8298 19.0371H14.5938C14.3349 19.0371 14.125 19.247 14.125 19.5059C14.125 19.7647 14.3349 19.9746 14.5938 19.9746H16.8298C17.0887 19.9746 17.2986 19.7647 17.2986 19.5059C17.2986 19.247 17.0887 19.0371 16.8298 19.0371Z" fill="#343434"/>
<path d="M16.8314 8.02539H11.1016C10.8427 8.02539 10.6328 8.23527 10.6328 8.49414V11.0376C10.6328 11.2965 10.8427 11.5064 11.1016 11.5064H16.8314C17.0903 11.5064 17.3002 11.2965 17.3002 11.0376V8.49414C17.3002 8.23527 17.0903 8.02539 16.8314 8.02539ZM16.3627 10.5689H11.5703V8.96289H16.3627V10.5689Z" fill="#343434"/>
</svg>
