<svg width="29" height="29" viewBox="0 0 29 29" fill="none" xmlns="http://www.w3.org/2000/svg">
<rect width="29" height="29" fill="white"/>
<path d="M19.509 6.125C17.6517 6.125 16.1329 7.64379 16.1329 9.50109L10.8397 9.51809L10.498 7.7119C10.4493 7.44532 10.2175 7.25139 9.94649 7.25047H7.69539C6.92836 7.23346 6.92836 8.39271 7.69539 8.37549H9.47627L11.0924 16.9173C11.0923 16.9194 11.0923 16.9238 11.0924 16.9259C11.1692 17.3113 11.3267 17.6817 11.6032 17.9838C11.8797 18.2859 12.2998 18.5035 12.7656 18.5035H18.3752C18.8409 18.5035 19.261 18.2859 19.5376 17.9838C19.8141 17.6817 19.9672 17.3113 20.044 16.9259L20.9152 12.5632C22.0723 12.0268 22.8807 10.8562 22.8807 9.50128C22.8807 7.64398 21.3663 6.12519 19.509 6.12519V6.125ZM19.509 7.24995C20.7583 7.24995 21.7546 8.25178 21.7546 9.50109C21.7546 10.7504 20.7583 11.7511 19.509 11.7511C18.2597 11.7511 17.2579 10.7504 17.2579 9.50109C17.2579 8.25178 18.2597 7.24995 19.509 7.24995ZM19.4958 7.80591C19.1869 7.81229 18.9407 8.066 18.9443 8.37497V8.93968C18.7409 8.93964 18.5245 8.93968 18.3258 8.93968C17.5751 8.97859 17.6333 10.1046 18.384 10.0657H18.9443V10.626C18.9272 11.3929 20.0863 11.3929 20.0693 10.626V10.0657H20.6296C21.3803 10.0657 21.3803 8.93968 20.6296 8.93968H20.0693V8.37497C20.0732 8.05741 19.8133 7.7997 19.4958 7.80591H19.4958ZM11.0484 10.626H16.3306C16.797 11.9333 18.0464 12.8761 19.509 12.8761C19.5761 12.8761 19.6417 12.8697 19.7078 12.8654L18.9443 16.7041C18.8993 16.9298 18.8055 17.1161 18.707 17.2237C18.6085 17.3313 18.5308 17.3774 18.3752 17.3774H12.7656C12.61 17.3774 12.5312 17.3313 12.4327 17.2237C12.3349 17.1168 12.2418 16.9322 12.1965 16.7085V16.7042L11.0484 10.626ZM12.7568 19.6283C12.1421 19.6283 11.6318 20.1342 11.6318 20.7489C11.6318 21.3635 12.1421 21.875 12.7568 21.875C13.3714 21.875 13.8829 21.3635 13.8829 20.7489C13.8829 20.1342 13.3714 19.6283 12.7568 19.6283ZM18.384 19.6283C17.7693 19.6283 17.2579 20.1342 17.2579 20.7489C17.2579 21.3635 17.7693 21.875 18.384 21.875C18.9986 21.875 19.509 21.3635 19.509 20.7489C19.509 20.1342 18.9986 19.6283 18.384 19.6283Z" fill="#343434"/>
</svg>
