<svg width="40" height="40" viewBox="0 0 40 40" fill="none" xmlns="http://www.w3.org/2000/svg">
<rect width="40" height="40" rx="3" fill="#0077B5"/>
<g clip-path="url(#clip0_0_1)">
<path d="M29.9951 29.0008V29H30.0001V21.665C30.0001 18.0767 29.2276 15.3125 25.0326 15.3125C23.0159 15.3125 21.6626 16.4192 21.1101 17.4683H21.0517V15.6475H17.0742V29H21.2159V22.3883C21.2159 20.6475 21.5459 18.9642 23.7017 18.9642C25.8259 18.9642 25.8576 20.9508 25.8576 22.5V29.0008H29.9951Z" fill="white"/>
<path d="M10.3301 15.6484H14.4767V29.0009H10.3301V15.6484Z" fill="white"/>
<path d="M12.4017 9C11.0758 9 10 10.0758 10 11.4017C10 12.7275 11.0758 13.8258 12.4017 13.8258C13.7275 13.8258 14.8033 12.7275 14.8033 11.4017C14.8025 10.0758 13.7267 9 12.4017 9V9Z" fill="white"/>
</g>
<defs>
<clipPath id="clip0_0_1">
<rect width="20" height="20" fill="white" transform="translate(10 9)"/>
</clipPath>
</defs>
</svg>
