<svg width="29" height="29" viewBox="0 0 29 29" fill="none" xmlns="http://www.w3.org/2000/svg">
<rect width="29" height="29" fill="white"/>
<path d="M20.6816 9.22656H8.31836C7.59291 9.22656 7 9.81687 7 10.5449V18.4551C7 19.1834 7.59329 19.7734 8.31836 19.7734H20.6816C21.4071 19.7734 22 19.1831 22 18.4551V10.5449C22 9.81669 21.4068 9.22656 20.6816 9.22656ZM20.4792 10.1055C20.053 10.5331 15.0462 15.5562 14.8405 15.7625C14.6687 15.9348 14.3313 15.935 14.1595 15.7625L8.5208 10.1055H20.4792ZM7.87891 18.2935V10.7065L11.6601 14.5L7.87891 18.2935ZM8.5208 18.8945L12.2806 15.1225L13.537 16.383C14.0518 16.8995 14.9484 16.8993 15.463 16.383L16.7194 15.1225L20.4792 18.8945H8.5208ZM21.1211 18.2935L17.3399 14.5L21.1211 10.7065V18.2935Z" fill="#343434"/>
</svg>
