<svg width="14" height="13" viewBox="0 0 14 13" fill="none" xmlns="http://www.w3.org/2000/svg">
<path d="M10.5 0H3.5V1.30001H10.5V0Z" fill="#D1D1D1"/>
<path d="M9.8008 2.59961H4.20079L2.80078 4.54961V12.3496C2.80078 12.7396 3.08077 12.9996 3.50077 12.9996H10.5008C10.9208 12.9996 11.2008 12.7396 11.2008 12.3496V4.54961L9.8008 2.59961ZM9.8008 10.3996C9.8008 10.7896 9.52081 11.0496 9.10081 11.0496H4.90081C4.48081 11.0496 4.20082 10.7896 4.20082 10.3996V6.49961C4.20082 6.10961 4.48081 5.84962 4.90081 5.84962H9.10081C9.52081 5.84962 9.8008 6.10961 9.8008 6.49961V10.3996Z" fill="#D1D1D1"/>
<path d="M7.70041 6.5H6.3004V7.80001H4.90039V9.10002H6.3004V10.4H7.70041V9.10002H9.10039V7.80001H7.70041V6.5Z" fill="#D1D1D1"/>
</svg>
