<svg width="35" height="35" viewBox="0 0 35 35" fill="none" xmlns="http://www.w3.org/2000/svg">
<path d="M0.5 17.5C0.5 8.11116 8.11116 0.5 17.5 0.5C26.8888 0.5 34.5 8.11116 34.5 17.5C34.5 26.8888 26.8888 34.5 17.5 34.5C8.11116 34.5 0.5 26.8888 0.5 17.5Z" fill="#FAFAFA" stroke="#BB9B75"/>
<g clip-path="url(#clip0_154_4929)">
<path d="M15.0977 16.9688H11.9336C10.8674 16.9688 10 16.1014 10 15.0352V11.8711C10 10.8049 10.8674 9.9375 11.9336 9.9375H15.0977C16.1639 9.9375 17.0312 10.8049 17.0312 11.8711V15.0352C17.0312 16.1014 16.1639 16.9688 15.0977 16.9688ZM11.9336 10.875C11.3843 10.875 10.9375 11.3218 10.9375 11.8711V15.0352C10.9375 15.5844 11.3843 16.0312 11.9336 16.0312H15.0977C15.6469 16.0312 16.0938 15.5844 16.0938 15.0352V11.8711C16.0938 11.3218 15.6469 10.875 15.0977 10.875H11.9336Z" fill="#BB9B75"/>
<path d="M23.1289 16.9688H19.9648C18.8986 16.9688 18.0312 16.1014 18.0312 15.0352V11.8711C18.0312 10.8049 18.8986 9.9375 19.9648 9.9375H23.1289C24.1951 9.9375 25.0625 10.8049 25.0625 11.8711V15.0352C25.0625 16.1014 24.1951 16.9688 23.1289 16.9688ZM19.9648 10.875C19.4156 10.875 18.9688 11.3218 18.9688 11.8711V15.0352C18.9688 15.5844 19.4156 16.0312 19.9648 16.0312H23.1289C23.6782 16.0312 24.125 15.5844 24.125 15.0352V11.8711C24.125 11.3218 23.6782 10.875 23.1289 10.875H19.9648Z" fill="#BB9B75"/>
<path d="M21.5469 25C19.6084 25 18.0312 23.4229 18.0312 21.4844C18.0312 19.5459 19.6084 17.9688 21.5469 17.9688C23.4854 17.9688 25.0625 19.5459 25.0625 21.4844C25.0625 23.4229 23.4854 25 21.5469 25ZM21.5469 18.9062C20.1253 18.9062 18.9688 20.0628 18.9688 21.4844C18.9688 22.9059 20.1253 24.0625 21.5469 24.0625C22.9684 24.0625 24.125 22.9059 24.125 21.4844C24.125 20.0628 22.9684 18.9062 21.5469 18.9062Z" fill="#BB9B75"/>
<path d="M15.0977 25H11.9336C10.8674 25 10 24.1326 10 23.0664V19.9023C10 18.8361 10.8674 17.9688 11.9336 17.9688H15.0977C16.1639 17.9688 17.0312 18.8361 17.0312 19.9023V23.0664C17.0312 24.1326 16.1639 25 15.0977 25ZM11.9336 18.9062C11.3843 18.9062 10.9375 19.3531 10.9375 19.9023V23.0664C10.9375 23.6157 11.3843 24.0625 11.9336 24.0625H15.0977C15.6469 24.0625 16.0938 23.6157 16.0938 23.0664V19.9023C16.0938 19.3531 15.6469 18.9062 15.0977 18.9062H11.9336Z" fill="#BB9B75"/>
</g>
<defs>
<clipPath id="clip0_154_4929">
<rect width="15" height="15" fill="white" transform="translate(10 10)"/>
</clipPath>
</defs>
</svg>
