<svg width="23" height="23" viewBox="0 0 23 23" fill="none" xmlns="http://www.w3.org/2000/svg">
<g clip-path="url(#clip0_154_4972)">
<path d="M7.45703 10.8711C7.82918 10.8711 8.13086 10.5694 8.13086 10.1973C8.13086 9.82512 7.82918 9.52344 7.45703 9.52344C7.08489 9.52344 6.7832 9.82512 6.7832 10.1973C6.7832 10.5694 7.08489 10.8711 7.45703 10.8711Z" fill="#BB9B75"/>
<path d="M20.11 12.4188C19.8483 12.1542 19.4217 12.1518 19.157 12.4135L15.5456 15.9852L14.6718 15.1114C14.4087 14.8483 13.982 14.8483 13.7188 15.1114C13.4557 15.3746 13.4557 15.8012 13.7188 16.0643L15.0665 17.412C15.1981 17.5436 15.3705 17.6094 15.543 17.6094C15.7143 17.6094 15.8855 17.5445 16.0168 17.4146L20.1047 13.3717C20.3694 13.11 20.3716 12.6833 20.11 12.4188Z" fill="#BB9B75"/>
<path d="M19.6309 8.17578H14.8691V3.36914C14.8691 1.5114 13.3577 0 11.5 0H3.36914C1.5114 0 0 1.5114 0 3.36914V10.1973C0 11.8243 1.15943 13.1856 2.69531 13.4987V15.5879C2.69531 15.8594 2.85829 16.1044 3.10868 16.2093C3.36105 16.3151 3.64959 16.2572 3.84163 16.0682L6.38524 13.5664H9.47852V16.9355C9.47852 18.7933 10.9899 20.3047 12.8477 20.3047H13.5215V22.3262C13.5215 22.5987 13.6856 22.8444 13.9375 22.9487C14.1892 23.053 14.4791 22.9953 14.6718 22.8026L17.1697 20.3047H19.6309C21.4886 20.3047 23 18.7933 23 16.9355V11.5449C23 9.68718 21.4886 8.17578 19.6309 8.17578ZM9.47852 11.5449V12.2188H6.10938C5.93256 12.2188 5.76289 12.2882 5.63684 12.4122L4.04297 13.98V12.8926C4.04297 12.5204 3.74127 12.2188 3.36914 12.2188C2.25449 12.2188 1.34766 11.3119 1.34766 10.1973V3.36914C1.34766 2.25449 2.25449 1.34766 3.36914 1.34766H11.5C12.6146 1.34766 13.5215 2.25449 13.5215 3.36914V8.17578H12.8477C10.9899 8.17578 9.47852 9.68718 9.47852 11.5449ZM21.6523 16.9355C21.6523 18.0502 20.7455 18.957 19.6309 18.957H16.8906C16.7119 18.957 16.5405 19.0281 16.4142 19.1544L14.8691 20.6994V19.6309C14.8691 19.2587 14.5674 18.957 14.1953 18.957H12.8477C11.733 18.957 10.8262 18.0502 10.8262 16.9355V11.5449C10.8262 10.4303 11.733 9.52344 12.8477 9.52344H19.6309C20.7455 9.52344 21.6523 10.4303 21.6523 11.5449V16.9355Z" fill="#BB9B75"/>
<path d="M7.45703 2.69531C6.34238 2.69531 5.43555 3.60215 5.43555 4.7168C5.43555 5.08893 5.73724 5.39062 6.10938 5.39062C6.48151 5.39062 6.7832 5.08893 6.7832 4.7168C6.7832 4.34525 7.08548 4.04297 7.45703 4.04297C7.82858 4.04297 8.13086 4.34525 8.13086 4.7168C8.13086 4.89199 7.93226 5.23587 7.63299 5.35491C7.11675 5.56021 6.7832 6.05183 6.7832 6.60733V7.50195C6.7832 7.87409 7.0849 8.17578 7.45703 8.17578C7.82916 8.17578 8.12637 7.87409 8.12637 7.50195L8.12659 6.60715C8.89476 6.30155 9.47852 5.48887 9.47852 4.7168C9.47852 3.60215 8.57172 2.69531 7.45703 2.69531Z" fill="#BB9B75"/>
</g>
<defs>
<clipPath id="clip0_154_4972">
<rect width="23" height="23" fill="white"/>
</clipPath>
</defs>
</svg>
