<svg width="15" height="15" viewBox="0 0 15 15" fill="none" xmlns="http://www.w3.org/2000/svg">
<path d="M0.204479 7.51923C0.0432272 7.57862 -0.039889 7.75736 0.0188519 7.91923L0.215114 8.45923L1.70948 6.96484L0.204479 7.51923Z" fill="#CECECE"/>
<path d="M1.61719 12.3203L2.5172 14.7953C2.54532 14.8735 2.60406 14.9372 2.67906 14.9716C2.72093 14.991 2.76593 15.001 2.81093 15.001C2.84782 15.001 2.88406 14.9947 2.91907 14.9816L3.91221 14.6154L1.61719 12.3203Z" fill="#CECECE"/>
<path d="M14.98 10.2069L13.95 7.375L11.4781 9.84689L12.7031 9.39563C12.8637 9.33437 13.045 9.41813 13.1043 9.58064C13.1643 9.74251 13.0812 9.92251 12.9193 9.98189L11.3631 10.5556C11.3274 10.5688 11.2912 10.575 11.2549 10.575C11.128 10.575 11.008 10.4969 10.9618 10.3706C10.9612 10.3688 10.9618 10.3669 10.9612 10.365L8.3418 12.9844L14.7944 10.6069C14.9562 10.5475 15.0393 10.3688 14.98 10.2069Z" fill="#CECECE"/>
<path d="M14.9085 5.09147L9.9084 0.0914072C9.78652 -0.0304691 9.58838 -0.0304691 9.46651 0.0914072L0.0914072 9.46651C-0.0304691 9.58838 -0.0304691 9.78652 0.0914072 9.9084L5.09147 14.9085C5.15209 14.9697 5.2321 15.0003 5.31211 15.0003C5.39212 15.0003 5.4721 14.9697 5.53336 14.9091L14.9085 5.53398C15.0303 5.41148 15.0303 5.21396 14.9085 5.09147ZM3.65834 8.65902L2.40832 9.90901C2.34706 9.96963 2.26708 10.0003 2.18706 10.0003C2.10705 10.0003 2.02707 9.96966 1.96581 9.90901C1.84394 9.78714 1.84394 9.589 1.96581 9.46712L3.21584 8.2171C3.33771 8.09522 3.53585 8.09522 3.65773 8.2171C3.7796 8.33901 3.78022 8.5365 3.65834 8.65902ZM9.05526 9.05588C8.83401 9.27713 8.53339 9.38339 8.19899 9.38339C7.64648 9.38339 7.00086 9.09402 6.46085 8.55337C6.06584 8.15836 5.78833 7.68585 5.68023 7.22337C5.56023 6.70774 5.65899 6.25899 5.95835 5.95899C6.25773 5.65899 6.70648 5.56023 7.22272 5.68087C7.68524 5.78901 8.15774 6.06587 8.55273 6.4615C9.42089 7.32899 9.64214 8.469 9.05526 9.05588ZM13.0334 5.53398L11.7834 6.784C11.7222 6.84461 11.6422 6.87526 11.5622 6.87526C11.4822 6.87526 11.4022 6.84464 11.3409 6.784C11.219 6.66212 11.219 6.46399 11.3409 6.34211L12.5909 5.09209C12.7128 4.97021 12.9109 4.97021 13.0328 5.09209C13.1547 5.21396 13.1553 5.41148 13.0334 5.53398Z" fill="#CECECE"/>
</svg>
