<svg width="23" height="23" viewBox="0 0 23 23" fill="none" xmlns="http://www.w3.org/2000/svg">
<rect width="23" height="23" fill="#EBEBEB"/>
<path d="M10.2005 8.86337C10.1226 8.86166 10.0461 8.88425 9.98161 8.92804C9.91712 8.97182 9.86788 9.03464 9.84074 9.10771C9.81359 9.18077 9.80988 9.26047 9.83013 9.33574C9.85038 9.41101 9.89357 9.47807 9.95371 9.52766L12.2484 11.4935L9.95371 13.4586C9.91211 13.4892 9.87727 13.528 9.85137 13.5727C9.82548 13.6173 9.80908 13.6669 9.80321 13.7182C9.79734 13.7695 9.80213 13.8214 9.81727 13.8708C9.83241 13.9201 9.85758 13.9658 9.8912 14.005C9.92482 14.0442 9.96617 14.076 10.0127 14.0984C10.0591 14.1209 10.1098 14.1335 10.1614 14.1355C10.213 14.1375 10.2644 14.1288 10.3125 14.11C10.3606 14.0912 10.4042 14.0627 10.4408 14.0262L13.068 11.7784C13.1092 11.7432 13.1424 11.6995 13.1651 11.6502C13.1878 11.601 13.1996 11.5474 13.1996 11.4931C13.1996 11.4389 13.1878 11.3853 13.1651 11.336C13.1424 11.2868 13.1092 11.243 13.068 11.2078L10.4408 8.95784C10.3744 8.89889 10.2893 8.86537 10.2005 8.86329V8.86337Z" fill="#9B9B9B"/>
</svg>
