<svg width="40" height="40" viewBox="0 0 40 40" fill="none" xmlns="http://www.w3.org/2000/svg">
<rect width="40" height="40" rx="3" fill="#D0272C"/>
<g clip-path="url(#clip0_0_1)">
<path d="M18.9079 23.2125C18.3042 26.3786 17.5666 29.4144 15.3816 31.0001C14.7073 26.2141 16.3721 22.6199 17.1448 18.8043C15.8268 16.5851 17.3033 12.1199 20.0836 13.2205C23.5044 14.5735 17.1214 21.4695 21.4065 22.3306C25.8807 23.2295 27.7068 14.5677 24.9329 11.7511C20.924 7.68341 13.264 11.6581 14.206 17.4818C14.4351 18.9053 15.9063 19.3375 14.794 21.3019C12.2281 20.7332 11.4626 18.7099 11.561 16.0124C11.7195 11.5966 15.5285 8.50504 19.3491 8.07738C24.1804 7.53652 28.7148 9.8509 29.3411 14.3961C30.0463 19.5257 27.1601 25.0812 21.9941 24.6819C20.5934 24.5731 20.0058 23.8791 18.9079 23.2125Z" fill="white"/>
</g>
<defs>
<clipPath id="clip0_0_1">
<rect width="23" height="23" fill="white" transform="translate(9 8)"/>
</clipPath>
</defs>
</svg>
