<svg width="15" height="15" viewBox="0 0 15 15" fill="none" xmlns="http://www.w3.org/2000/svg">
<path d="M7.43243 0C3.33435 0 0 3.33435 0 7.43243C0 11.5305 3.33435 14.8649 7.43243 14.8649C11.5305 14.8649 14.8649 11.5305 14.8649 7.43243C14.8649 3.33435 11.5305 0 7.43243 0ZM11.5864 5.47653L6.83635 10.1893C6.55693 10.4687 6.10987 10.4874 5.81183 10.208L3.29709 7.91675C2.99905 7.63734 2.98042 7.17165 3.24121 6.8736C3.52063 6.57556 3.98632 6.55693 4.28436 6.83635L6.27752 8.66186L10.5246 4.41475C10.8227 4.11671 11.2884 4.11671 11.5864 4.41475C11.8844 4.7128 11.8844 5.17849 11.5864 5.47653Z" fill="white"/>
</svg>
