<svg width="40" height="40" viewBox="0 0 40 40" fill="none" xmlns="http://www.w3.org/2000/svg">
<rect width="40" height="40" rx="3" fill="#1DA1F2"/>
<g clip-path="url(#clip0_0_1)">
<path d="M15.5009 29.755C24.5581 29.755 29.5109 22.2515 29.5109 15.745C29.5109 15.5319 29.5065 15.3197 29.497 15.1085C30.4583 14.4135 31.294 13.5461 31.9532 12.5588C31.071 12.951 30.1214 13.2148 29.1255 13.3341C30.1421 12.7243 30.9227 11.7601 31.2907 10.6105C30.3393 11.1745 29.2857 11.5843 28.164 11.8057C27.2655 10.8486 25.9861 10.25 24.5696 10.25C21.8505 10.25 19.6453 12.4551 19.6453 15.1733C19.6453 15.5599 19.6886 15.9356 19.773 16.2962C15.6806 16.0902 12.0516 14.1309 9.62323 11.1514C9.20044 11.8791 8.95654 12.7245 8.95654 13.6265C8.95654 15.3347 9.82593 16.8429 11.1478 17.7251C10.3399 17.7002 9.58112 17.4785 8.91773 17.1093C8.91699 17.13 8.91699 17.1502 8.91699 17.1721C8.91699 19.5569 10.6142 21.548 12.8675 21.9992C12.4537 22.1118 12.0183 22.1724 11.5691 22.1724C11.2523 22.1724 10.9436 22.1413 10.6435 22.0836C11.2705 24.0401 13.0883 25.4637 15.2435 25.5036C13.5582 26.8246 11.4351 27.6114 9.12775 27.6114C8.73078 27.6114 8.33856 27.5887 7.95312 27.5432C10.1323 28.94 12.7201 29.7552 15.5011 29.7552" fill="white"/>
</g>
<defs>
<clipPath id="clip0_0_1">
<rect width="24" height="24" fill="white" transform="translate(8 8)"/>
</clipPath>
</defs>
</svg>
