<svg width="29" height="29" viewBox="0 0 29 29" fill="none" xmlns="http://www.w3.org/2000/svg">
<rect width="29" height="29" fill="white"/>
<path d="M19.5951 15.7012C18.344 15.7012 17.3262 16.719 17.3262 17.9701C17.3262 19.2212 18.344 20.239 19.5951 20.239C20.8464 20.239 21.864 19.2212 21.864 17.9701C21.864 16.719 20.8462 15.7012 19.5951 15.7012ZM19.5951 19.1045C18.9694 19.1045 18.4606 18.5957 18.4606 17.9701C18.4606 17.3444 18.9694 16.8356 19.5951 16.8356C20.2207 16.8356 20.7295 17.3444 20.7295 17.9701C20.7295 18.5958 20.2207 19.1045 19.5951 19.1045Z" fill="#343434"/>
<path d="M11.8431 15.7012C10.592 15.7012 9.57422 16.719 9.57422 17.9701C9.57422 19.2212 10.592 20.239 11.8431 20.239C13.0942 20.239 14.112 19.2212 14.112 17.9701C14.112 16.719 13.0942 15.7012 11.8431 15.7012ZM11.8431 19.1045C11.2175 19.1045 10.7087 18.5957 10.7087 17.9701C10.7087 17.3444 11.2175 16.8356 11.8431 16.8356C12.4686 16.8356 12.9776 17.3444 12.9776 17.9701C12.9776 18.5958 12.4688 19.1045 11.8431 19.1045Z" fill="#343434"/>
<path d="M21.1232 9.20689C21.0268 9.01536 20.8307 8.89453 20.6163 8.89453H17.6289V10.029H20.2665L21.8111 13.1011L22.8249 12.5913L21.1232 9.20689Z" fill="#343434"/>
<path d="M17.8936 17.4219H13.6016V18.5563H17.8936V17.4219Z" fill="#343434"/>
<path d="M10.141 17.4219H8.17463C7.86132 17.4219 7.60742 17.6758 7.60742 17.9891C7.60742 18.3024 7.86136 18.5563 8.17463 18.5563H10.141C10.4543 18.5563 10.7082 18.3024 10.7082 17.9891C10.7082 17.6758 10.4543 17.4219 10.141 17.4219Z" fill="#343434"/>
<path d="M23.8811 13.9539L22.7654 12.5169C22.6582 12.3785 22.4928 12.2976 22.3175 12.2976H18.1956V8.32698C18.1956 8.01366 17.9417 7.75977 17.6284 7.75977H8.17463C7.86132 7.75977 7.60742 8.0137 7.60742 8.32698C7.60742 8.64025 7.86136 8.89419 8.17463 8.89419H17.0612V12.8648C17.0612 13.1781 17.3151 13.432 17.6284 13.432H22.0397L22.8658 14.4961V17.4215H21.2965C20.9831 17.4215 20.7292 17.6754 20.7292 17.9887C20.7292 18.302 20.9832 18.5559 21.2965 18.5559H23.433C23.7463 18.5559 24.0002 18.302 24.0003 17.9887V14.3018C24.0003 14.1759 23.9583 14.0533 23.8811 13.9539Z" fill="#343434"/>
<path d="M10.1023 14.5488H7.49299C7.17968 14.5488 6.92578 14.8028 6.92578 15.116C6.92578 15.4294 7.17971 15.6833 7.49299 15.6833H10.1022C10.4155 15.6833 10.6694 15.4293 10.6694 15.116C10.6695 14.8028 10.4155 14.5488 10.1023 14.5488Z" fill="#343434"/>
<path d="M11.4076 12.3164H6.56721C6.25393 12.3164 6 12.5703 6 12.8837C6 13.197 6.25393 13.4509 6.56721 13.4509H11.4076C11.7209 13.4509 11.9748 13.1969 11.9748 12.8837C11.9748 12.5704 11.7209 12.3164 11.4076 12.3164Z" fill="#343434"/>
<path d="M12.3333 10.0859H7.49299C7.17968 10.0859 6.92578 10.3399 6.92578 10.6531C6.92578 10.9665 7.17971 11.2204 7.49299 11.2204H12.3333C12.6467 11.2204 12.9006 10.9664 12.9006 10.6531C12.9006 10.3399 12.6467 10.0859 12.3333 10.0859Z" fill="#343434"/>
</svg>
